<svg width="512" height="512" viewBox="0 0 512 512" fill="none" xmlns="http://www.w3.org/2000/svg">
  <!-- Created by SOP Engine -->
  <defs>
    <linearGradient id="g1" x1="0" y1="0" x2="512" y2="512" gradientUnits="userSpaceOnUse">
      <stop offset="0%" stop-color="#a855f7"/>
      <stop offset="100%" stop-color="#06b6d4"/>
    </linearGradient>
    <filter id="glow" x="-20%" y="-20%" width="140%" height="140%">
      <feGaussianBlur stdDeviation="4" result="blur"/>
      <feComposite in="SourceGraphic" in2="blur" operator="over"/>
    </filter>
  </defs>
  
  <!-- Shield Background -->
  <path d="M256 32L432 96V240C432 360 256 464 256 464C256 464 80 360 80 240V96L256 32Z" 
        stroke="url(#g1)" 
        stroke-width="24" 
        fill="#0E0E12" 
        stroke-linecap="round" 
        stroke-linejoin="round"/>
        
  <!-- Stylized Geometric S -->
  <path d="M336 176H208C190.3 176 176 190.3 176 208V208C176 225.7 190.3 240 208 240H304C321.7 240 336 254.3 336 272V272C336 289.7 321.7 304 304 304H176" 
        stroke="url(#g1)" 
        stroke-width="32" 
        stroke-linecap="round" 
        stroke-linejoin="round"
        filter="url(#glow)"/>
</svg>
